<?xml version="1.0" encoding="utf-8"?><!DOCTYPE svg PUBLIC "-//W3C//DTD SVG 1.1//EN" "http://www.w3.org/Graphics/SVG/1.1/DTD/svg11.dtd"><svg width="149" height="141" viewBox="0 0 149 141" xmlns="http://www.w3.org/2000/svg" xmlns:xlink="http://www.w3.org/1999/xlink"><svg id="catalog" viewBox="-1 -1 34 34" width="34" height="34"><style>.aast0{fill:#fff}</style><title/><path class="aast0" d="M4.5 10.7h6.2V4.5H4.5v6.2zm2.1-4.1h2.1v2.1H6.6V6.6zM12.8 10.7H19V4.5h-6.2v6.2zm2.1-4.1H17v2.1h-2.1V6.6zM21.3 4.5v6.2h6.2V4.5h-6.2zm4.1 4.2h-2.1V6.6h2.1v2.1zM4.5 19.2h6.2V13H4.5v6.2zm2.1-4.3h2.1V17H6.6v-2.1zM12.8 19.2H19V13h-6.2v6.2zm2.1-4.3H17V17h-2.1v-2.1zM21.3 19.2h6.2V13h-6.2v6.2zm2-4.3h2.1V17h-2.1v-2.1zM4.5 27.5h6.2v-6.2H4.5v6.2zm2.1-4.2h2.1v2.1H6.6v-2.1zM12.8 27.5H19v-6.2h-6.2v6.2zm2.1-4.2H17v2.1h-2.1v-2.1zM21.3 27.5h6.2v-6.2h-6.2v6.2zm2-4.2h2.1v2.1h-2.1v-2.1z"/></svg><svg id="close" width="21.06" height="21.06" viewBox="-1 -1 21.06 21.06" x="123.63" y="50"><defs><style>.abcls-1{fill:#54686f;fill-rule:evenodd}</style></defs><path id="abShape_2919_copy_3" data-name="Shape 2919 copy 3" class="abcls-1" d="M2128.84 1297.95l.71.71-18.39 18.39-.71-.71z" transform="translate(-2110.47 -1297.97)"/><path id="abShape_2919_copy_4" data-name="Shape 2919 copy 4" class="abcls-1" d="M2110.45 1298.66l.71-.71 18.39 18.39-.71.71z" transform="translate(-2110.47 -1297.97)"/></svg><svg viewBox="-1 -1 28 28" width="28" height="28" id="documentation-download_green" x="28" y="63.35"><path fill="none" d="M0 0h26v26H0z"/><path fill="#009A97" d="M20 20H6v2h14v-2zm-.884-8.535a.833.833 0 0 0-1.178 0l-4.132 4.132V4.833a.834.834 0 0 0-1.667 0v10.764L8.063 11.52a.833.833 0 1 0-1.178 1.178l5.498 5.498a.77.77 0 0 0 .061.056l.03.022.035.026.037.023a.565.565 0 0 0 .033.019l.038.019.036.016c.012.006.025.01.038.014l.04.014.037.01c.014.002.027.007.041.01.015.002.03.003.044.006l.037.005c.054.006.11.006.164 0 .013 0 .024-.003.037-.005l.044-.007c.013-.002.027-.007.04-.01l.039-.01c.013-.003.026-.008.04-.013a.328.328 0 0 0 .073-.03l.037-.019.034-.02c.012-.007.024-.013.036-.022l.036-.026.03-.022a.886.886 0 0 0 .088-.085l.029-.026 5.498-5.499a.833.833 0 0 0 0-1.178"/></svg><svg viewBox="-1 -1 28 28" width="28" height="28" id="documentation-download_white" x="56" y="63.35"><path fill="none" d="M0 0h26v26H0z"/><path fill="#FFF" d="M20 20H6v2h14v-2zm-.884-8.535a.833.833 0 0 0-1.178 0l-4.132 4.132V4.833a.834.834 0 0 0-1.667 0v10.764L8.063 11.52a.833.833 0 1 0-1.178 1.178l5.498 5.498a.77.77 0 0 0 .061.056l.03.022.035.026.037.023a.565.565 0 0 0 .033.019l.038.019.036.016c.012.006.025.01.038.014l.04.014.037.01c.014.002.027.007.041.01.015.002.03.003.044.006l.037.005c.054.006.11.006.164 0 .013 0 .024-.003.037-.005l.044-.007c.013-.002.027-.007.04-.01l.039-.01c.013-.003.026-.008.04-.013a.328.328 0 0 0 .073-.03l.037-.019.034-.02c.012-.007.024-.013.036-.022l.036-.026.03-.022a.886.886 0 0 0 .088-.085l.029-.026 5.498-5.499a.833.833 0 0 0 0-1.178"/></svg><svg viewBox="-1 -1 28 28" width="28" height="28" id="external-link" x="95.63" y="28"><path fill="none" d="M0 0h26v26H0z"/><g fill="#54686F"><path d="M16.724 22.309H6.484a2.796 2.796 0 0 1-2.793-2.793V9.276a2.796 2.796 0 0 1 2.793-2.792h5.585a.93.93 0 0 1 0 1.861H6.484a.932.932 0 0 0-.931.931v10.24c0 .514.417.931.93.931h10.24c.514 0 .932-.417.932-.93V13.93a.93.93 0 1 1 1.861 0v5.585a2.796 2.796 0 0 1-2.792 2.793z"/><path d="M22.237 4.266a.93.93 0 0 0-.859-.575h-5.585a.93.93 0 1 0 0 1.862h3.338l-8.651 8.65a.93.93 0 1 0 1.316 1.317l8.651-8.65v3.337a.93.93 0 1 0 1.862 0V4.622a.931.931 0 0 0-.072-.356z"/></g></svg><svg width="25" height="25" viewBox="-1 -1 25 25" id="header-icon__cart" x="53" y="91.35"><title>header-icon__cart</title><g transform="translate(0 2)" fill="#008f86" fill-rule="nonzero"><path d="M22.541 4H9.571c-.423 0-.663.312-.538.697l2.052 5.742c.101.31.459.561.799.561h8.503c.34 0 .697-.251.798-.56l1.788-5.878c.102-.31-.091-.562-.432-.562z"/><circle cx="11" cy="17" r="2"/><circle cx="18" cy="17" r="2"/><path d="M19.933 12.841H8.913L4.502 0H1.067C.477 0 0 .483 0 1.08c0 .596.478 1.079 1.067 1.079h1.917L7.396 15h12.537c.59 0 1.067-.483 1.067-1.08 0-.596-.478-1.079-1.067-1.079z"/></g></svg><svg width="25" height="25" viewBox="-1 -1 25 25" id="header-icon__log-in" x="78" y="91.35"><title>header-icon__log-in</title><path d="M20 1.786v20.428a.78.78 0 0 1-.773.786H3.773A.78.78 0 0 1 3 22.214v-1.571h1.545v.786h13.91V2.57H4.545V4.93H3V1.786A.78.78 0 0 1 3.773 1h15.454a.78.78 0 0 1 .773.786zM8.633 15.37l1.097 1.115 3.864-3.928a.792.792 0 0 0 0-1.116L9.73 7.514 8.633 8.629l2.55 2.585H3v1.572h8.183l-2.55 2.585z" fill="#009797" fill-rule="nonzero"/></svg><svg width="25" height="25" viewBox="-1 -1 25 25" id="header-icon__log-out" x="123.63" y="25"><title>header-icon__log-out</title><path d="M3 1.786v20.428a.78.78 0 0 0 .773.786h15.454a.78.78 0 0 0 .773-.786v-1.571h-1.545v.786H4.545V2.57h13.91V4.93H20V1.786A.78.78 0 0 0 19.227 1H3.773A.78.78 0 0 0 3 1.786zM14.81 15.37l1.098 1.115 3.863-3.928a.792.792 0 0 0 0-1.116l-3.863-3.928-1.097 1.115 2.55 2.585H9.177v1.572h8.184l-2.55 2.585z" fill="#009797" fill-rule="nonzero"/></svg><svg viewBox="-1 -1 17 17" width="17" height="17" id="header-icon__phone" x="21" y="119.35"><path fill="none" d="M0 0h15v15H0z"/><path fill="#9F0412" d="M3.618 6.63a10.876 10.876 0 0 0 4.76 4.755l1.588-1.592a.725.725 0 0 1 .734-.177c.808.267 1.679.412 2.578.412.4 0 .722.321.722.722v2.528a.72.72 0 0 1-.722.722C6.496 14 1 8.504 1 1.722c0-.4.325-.722.722-.722H4.25c.4 0 .722.321.722.722 0 .9.145 1.77.412 2.579.08.249.022.534-.177.733L3.618 6.63z"/></svg><svg viewBox="-1 -1 17 17" width="17" height="17" id="header-icon__pin" x="66.66" y="46.129999999999995"><path fill="none" d="M0 0h15v15H0z"/><path fill="#9F0412" d="M10.137 5.455a2.734 2.734 0 0 1-2.74 2.727 2.734 2.734 0 0 1-2.74-2.727 2.734 2.734 0 0 1 2.74-2.728 2.733 2.733 0 0 1 2.74 2.728m2.843 0C12.98 2.442 10.526 0 7.5 0 4.474 0 2.02 2.442 2.02 5.455c0 1.324.475 2.539 1.264 3.483L7.504 15l4.283-6.15a5.39 5.39 0 0 0 .422-.606l.043-.062h-.007a5.411 5.411 0 0 0 .735-2.727"/></svg><svg width="25" height="25" viewBox="-1 -1 25 25" id="header-icon__search" x="28" y="91.35"><title>header-icon__search</title><path d="M20.535 18.29l-4.128-4.128c-.022-.022-.047-.037-.07-.058a7.812 7.812 0 1 0-2.233 2.232c.02.024.036.05.058.071l4.127 4.128a1.588 1.588 0 0 0 2.246-2.245zM10 15a5 5 0 1 1 0-10 5 5 0 0 1 0 10z" fill="#008f86" fill-rule="evenodd"/></svg><svg viewBox="-1 -1 17 21" width="17" height="21" id="hype" x="123.63" y="92.06"><path fill="#525B6A" d="M14.707 4.293l-4-4A1 1 0 0 0 10 0H1a1 1 0 0 0-1 1v17a1 1 0 0 0 1 1h13a1 1 0 0 0 1-1V5a1 1 0 0 0-.293-.707zM10 1l4 4v1H9V1h1zm4 17H1V1h7v5a1 1 0 0 0 1 1h5v11z"/></svg><svg width="21" height="21" viewBox="-1 -1 21 21" id="ico-add" x="123.63" y="71.06"><title>add</title><g transform="translate(1 1)" fill="#019899" fill-rule="nonzero"><path d="M8.5 0a8.5 8.5 0 1 0 0 17 8.5 8.5 0 0 0 0-17zm0 15a6.5 6.5 0 1 1 0-13 6.5 6.5 0 0 1 0 13z"/><path d="M12.1 7.6H9.4V4.9a.9.9 0 0 0-1.8 0v2.7H4.9a.9.9 0 0 0 0 1.8h2.7v2.7a.9.9 0 0 0 1.8 0V9.4h2.7a.9.9 0 0 0 0-1.8z"/></g></svg><svg width="21" height="21" viewBox="-1 -1 21 21" id="ico-filter" y="119.35"><title>filter</title><path d="M2 3l6 6.832v4.724L11 16V9.832L17 3z" stroke="#019899" stroke-width="1.7" fill="none" fill-rule="evenodd" stroke-linecap="round" stroke-linejoin="round"/></svg><svg id="menu-mobile" width="28" height="22" viewBox="-1 -1 28 22" x="95.63" y="56"><defs><style>.aocls-1{fill:#f2f3f5;fill-rule:evenodd}</style></defs><path class="aocls-1" d="M3216 2343v-1h26v1h-26z" transform="translate(-3216 -2323)"/><path id="aoShape_2919_copy" data-name="Shape 2919 copy" class="aocls-1" d="M3216 2333v-1h26v1h-26z" transform="translate(-3216 -2323)"/><path id="aoShape_2919_copy_2" data-name="Shape 2919 copy 2" class="aocls-1" d="M3216 2324v-1h26v1h-26z" transform="translate(-3216 -2323)"/></svg><svg viewBox="-1 -1 28 28" width="28" height="28" id="pdf" y="91.35"><path fill="none" d="M0 0h26v26H0z"/><g fill="#54686F"><path d="M13 11.48h-.56v3.04h.64c.56 0 .96-.08 1.28-.32s.48-.64.48-1.2c0-.56-.16-.88-.48-1.12-.32-.32-.8-.4-1.36-.4zM9.08 11.64c-.16-.16-.48-.16-.88-.16h-.64v1.84h.8c.4 0 .64-.16.8-.32.16-.16.24-.4.24-.72 0-.32-.08-.56-.32-.64z"/><path d="M23.88 7.24H2.12C1.24 7.24.6 7.88.6 8.76v8.48c0 .8.64 1.52 1.52 1.52h21.76c.8 0 1.52-.64 1.52-1.52V8.76c0-.88-.64-1.52-1.52-1.52zm-13.84 6.48c-.4.32-.96.48-1.76.48h-.72v1.52h-1.2v-5.44h1.92c.8 0 1.44.16 1.84.48.4.32.56.8.56 1.52s-.24 1.12-.64 1.44zm5.2 1.28c-.48.48-1.28.72-2.32.72h-1.76v-5.44H13c.96 0 1.68.24 2.24.72.56.48.8 1.12.8 2-.08.8-.32 1.52-.8 2zm5.04-3.52h-2.4v1.2h2.4v.88h-2.4v2.08H16.6v-5.36h3.6v1.2h.08z"/></g></svg><svg viewBox="-1 -1 28 28" width="28" height="28" id="print" y="63.35"><path fill="none" d="M0 0h26v26H0z"/><path fill="#54686F" d="M23.777 10.45H18.76V2.223c0-.412-.411-.823-.823-.823H8.064c-.411 0-.823.411-.823.823v8.227H2.305c-.411 0-.823.41-.823.822s.412.823.823.823h5.018v1.645c0 .412.412.823.823.823h9.872c.412 0 .823-.411.823-.823v-1.645h4.114v8.227h-4.032v-.823c0-.411-.41-.823-.822-.823H8.064c-.411.083-.823.412-.823.905v.823H3.128v-5.759c0-.411-.412-.822-.823-.822s-.905.411-.905.822v6.582c0 .411.411.823.823.823H7.24v1.645c0 .494.411.905.823.905h9.872c.411 0 .823-.411.823-.823v-1.645h5.018c.411 0 .823-.411.823-.823V11.272c0-.411-.411-.822-.823-.822zm-6.664 2.468H8.97v-9.79h8.227l-.083 9.79zm0 9.872H8.97v-2.468h8.227l-.083 2.468z"/></svg><svg width="25" height="25" viewBox="-1 -1 25 25" id="profile" x="123.63"><g transform="translate(-1677 -50)" fill="none" fill-rule="evenodd"><path fill="#FFF" d="M0 0h1920v1422H0z"/><path d="M1690.212 63.514c1.227-.628 2.077-1.891 2.077-3.361v-3.204c0-2.089-1.7-3.788-3.789-3.788-2.089 0-3.789 1.7-3.789 3.788v3.204c0 1.47.85 2.733 2.078 3.36-4.175.434-8.122 2.472-8.122 6.389 0 .143.116.259.259.259h19.148c.143 0 .26-.116.26-.259 0-3.917-3.948-5.955-8.122-6.388z" fill="#058F84" fill-rule="nonzero"/></g></svg><svg viewBox="-1 -1 19 19" width="19" height="19" id="remove_cart" x="103" y="91.35"><path fill="none" d="M0 0h17v17H0V0z"/><path fill="#9f0412" d="M10.697 5.1L8.5 7.297 6.303 5.1 5.1 6.303 7.297 8.5 5.1 10.697 6.303 11.9 8.5 9.703l2.197 2.197 1.203-1.203L9.703 8.5 11.9 6.303 10.697 5.1zM8.5 0C3.804 0 0 3.804 0 8.5S3.804 17 8.5 17 17 13.196 17 8.5 13.196 0 8.5 0zm0 15.3c-3.748 0-6.8-3.051-6.8-6.8s3.051-6.8 6.8-6.8 6.8 3.051 6.8 6.8-3.052 6.8-6.8 6.8z"/></svg><svg width="17.15" height="28.97" viewBox="-1 -1 17.15 28.97" id="right" x="66.66" y="17.16"><defs><style>.atcls-1{fill:none;stroke:#54686f;stroke-width:1px;fill-rule:evenodd}</style></defs><path id="atright.svg" class="atcls-1" d="M3429.11 2255.58l13.46 13-13.46 12.99" transform="translate(-3427.91 -2255.09)"/></svg><svg viewBox="-1 -1 28.35 29.35" width="28.35" height="29.35" id="search" y="34"><path fill="#FFF" d="M26.354 26.646l-6.876-6.875A11.458 11.458 0 0 0 23 11.5C23 5.149 17.851 0 11.5 0S0 5.149 0 11.5 5.149 23 11.5 23c2.74 0 5.255-.962 7.23-2.563l6.916 6.916.707-.707zM1 11.5C1 5.71 5.71 1 11.5 1S22 5.71 22 11.5 17.29 22 11.5 22 1 17.29 1 11.5z"/></svg><svg viewBox="-1 -1 28 28" width="28" height="28" id="share" x="95.63"><path fill="none" d="M0 0h26v26H0z"/><path fill="#54686F" d="M18.443 14.84c-1.073 0-2.07.537-2.76 1.303l-4.676-2.376c.076-.23.076-.537.076-.767 0-.23 0-.537-.076-.767l4.676-2.377c.69.767 1.61 1.304 2.76 1.304 1.994 0 3.68-1.687 3.68-3.68a3.681 3.681 0 0 0-7.36 0c0 .23 0 .537.077.767l-4.677 2.376c-.69-.766-1.61-1.303-2.76-1.303C5.41 9.32 3.8 11.007 3.8 13s1.61 3.68 3.68 3.68c1.073 0 2.07-.537 2.76-1.303l4.677 2.376c-.077.23-.077.537-.077.767a3.68 3.68 0 0 0 7.36 0c0-1.993-1.763-3.68-3.757-3.68zm0-9.2c.997 0 1.84.843 1.84 1.84s-.843 1.84-1.84 1.84-1.84-.843-1.84-1.84.844-1.84 1.84-1.84zm-11.04 9.2c-.996 0-1.84-.843-1.84-1.84s.844-1.84 1.84-1.84 1.84.843 1.84 1.84-.766 1.84-1.84 1.84zm11.04 5.52c-.996 0-1.84-.843-1.84-1.84s.844-1.84 1.84-1.84 1.84.843 1.84 1.84-.843 1.84-1.84 1.84z"/></svg><svg viewBox="-1 -1 16.33 29.66" width="16.33" height="29.66" id="swiper-arrows__left" x="50.33"><path fill="#54686F" d="M14.33.665L13.664 0 0 13.83l13.665 13.829.664-.665L1.165 13.829z"/></svg><svg viewBox="-1 -1 16.33 29.66" width="16.33" height="29.66" id="swiper-arrows__right" x="34"><path fill="#54686F" d="M0 26.994l.665.665 13.664-13.83L.665 0 0 .665l13.165 13.164z"/></svg><svg viewBox="-1 -1 15.69 15.69" width="15.69" height="15.69" id="tag" x="38" y="119.35"><g fill="#54686F"><path d="M1 1l4.665.423 7.024 7.024-4.242 4.242-6.963-6.963L1 1M.293.293L.289.297a1 1 0 0 0-.284.805L.49 5.828a1 1 0 0 0 .288.606l6.963 6.963a1 1 0 0 0 1.414 0l4.242-4.243a1 1 0 0 0 0-1.414L6.373.716a1 1 0 0 0-.617-.29L1.09.005a1 1 0 0 0-.797.289z"/><path d="M5.168 5.169c-.743.743-1.952.743-2.695 0s-.744-1.953 0-2.696 1.953-.744 2.696 0 .743 1.952 0 2.696zM3.18 3.179a.907.907 0 1 0 1.284 1.282A.907.907 0 0 0 3.18 3.18z"/></g></svg><svg viewBox="-1 -1 15.69 15.69" width="15.69" height="15.69" id="tag_green" x="53.69" y="119.35"><g fill="#008f86"><path d="M1 1l4.665.423 7.024 7.024-4.242 4.242-6.963-6.963L1 1M.293.293L.289.297a1 1 0 0 0-.284.805L.49 5.828a1 1 0 0 0 .288.606l6.963 6.963a1 1 0 0 0 1.414 0l4.242-4.243a1 1 0 0 0 0-1.414L6.373.716a1 1 0 0 0-.617-.29L1.09.005a1 1 0 0 0-.797.289z"/><path d="M5.168 5.169c-.743.743-1.952.743-2.695 0s-.744-1.953 0-2.696 1.953-.744 2.696 0 .743 1.952 0 2.696zM3.18 3.179a.907.907 0 1 0 1.284 1.282A.907.907 0 0 0 3.18 3.18z"/></g></svg><svg width="28.97" height="17.16" viewBox="-1 -1 28.97 17.16" id="up-red" x="66.66"><defs><style>.bacls-1{fill:none;stroke:#9f0412;stroke-width:1px;fill-rule:evenodd}</style></defs><path id="baup-red.svg" class="bacls-1" d="M4546.49 1865.96l12.99-13.47 13 13.47" transform="translate(-4546 -1852)"/></svg><svg width="29" height="17.16" viewBox="-1 -1 29 17.16" id="up-white" x="28.35" y="34"><defs><style>.bbcls-1{fill:none;stroke:#fff;stroke-width:1px;fill-rule:evenodd}</style></defs><path id="bbup-white.svg" class="bbcls-1" d="M8167 2113.47l13-13.47 13 13.47" transform="translate(-8166.5 -2099.5)"/></svg></svg>